<svg width="18" height="19" viewBox="0 0 18 19" fill="none" xmlns="http://www.w3.org/2000/svg">
<g clip-path="url(#clip0_1_102)">
<path d="M9 0.727539C4.02991 0.727539 0 4.75745 0 9.72754C0 14.6976 4.02991 18.7275 9 18.7275C13.9701 18.7275 18 14.6976 18 9.72754C18 4.75745 13.9701 0.727539 9 0.727539ZM9 17.2008C4.87366 17.2008 1.52679 13.8539 1.52679 9.72754C1.52679 5.6012 4.87366 2.25432 9 2.25432C13.1263 2.25432 16.4732 5.6012 16.4732 9.72754C16.4732 13.8539 13.1263 17.2008 9 17.2008ZM9.1125 6.49919C10.1772 6.49919 10.9004 7.17821 10.9808 8.17464C10.9868 8.25901 11.0571 8.3233 11.1415 8.3233H12.2806C12.3328 8.3233 12.375 8.28111 12.375 8.22888C12.375 6.48714 11.0009 5.26772 9.10647 5.26772C6.89866 5.26772 5.625 6.75834 5.625 9.22129V10.272C5.625 12.7168 6.89866 14.1874 9.10647 14.1874C10.9949 14.1874 12.375 13.0061 12.375 11.3467C12.375 11.2945 12.3328 11.2523 12.2806 11.2523H11.1395C11.0551 11.2523 10.9868 11.3166 10.9788 11.399C10.8944 12.3251 10.1732 12.9619 9.11049 12.9619C7.79866 12.9619 7.05937 11.9996 7.05937 10.278V9.22129C7.06138 7.47352 7.80268 6.49919 9.1125 6.49919V6.49919Z" fill="black"/>
</g>
<defs>
<clipPath id="clip0_1_102">
<rect width="18" height="18" fill="white" transform="translate(0 0.727539)"/>
</clipPath>
</defs>
</svg>
