<svg width="32" height="26" viewBox="0 0 32 26" fill="none" xmlns="http://www.w3.org/2000/svg">
<path d="M30.0557 0.970215H1.11317C0.497449 0.970215 0 1.46766 0 2.08339V24.3468C0 24.9626 0.497449 25.46 1.11317 25.46H30.0557C30.6714 25.46 31.1688 24.9626 31.1688 24.3468V2.08339C31.1688 1.46766 30.6714 0.970215 30.0557 0.970215ZM28.6642 4.82457V22.9554H2.50464V4.82457L1.54453 4.07666L2.91164 2.31994L4.40051 3.47833H26.7718L28.2607 2.31994L29.6278 4.07666L28.6642 4.82457ZM26.7718 3.47485L15.5844 12.1715L4.39703 3.47485L2.90816 2.31646L1.54105 4.07318L2.50116 4.8211L14.3843 14.0604C14.726 14.3259 15.1464 14.47 15.5792 14.47C16.0119 14.47 16.4324 14.3259 16.7741 14.0604L28.6642 4.82457L29.6243 4.07666L28.2572 2.31994L26.7718 3.47485Z" fill="black"/>
</svg>
