<svg width="32" height="31" viewBox="0 0 32 31" fill="none" xmlns="http://www.w3.org/2000/svg">
<path d="M30.6992 15.3349L17.2577 1.90027L16.3567 0.999294C16.1514 0.795362 15.8738 0.680908 15.5844 0.680908C15.2951 0.680908 15.0174 0.795362 14.8122 0.999294L0.469624 15.3349C0.259273 15.5444 0.0930288 15.7939 -0.0192951 16.0688C-0.131619 16.3436 -0.187747 16.6382 -0.184365 16.9351C-0.17045 18.1595 0.848798 19.137 2.07329 19.137H3.55172V30.4671H27.6171V19.137H29.1269C29.7217 19.137 30.2818 18.904 30.7027 18.4831C30.91 18.2765 31.0742 18.0308 31.1858 17.7603C31.2975 17.4898 31.3544 17.1999 31.3532 16.9072C31.3532 16.3159 31.1201 15.7558 30.6992 15.3349ZM17.5325 27.9624H13.6364V20.8659H17.5325V27.9624ZM25.1125 16.6324V27.9624H19.7588V20.0311C19.7588 19.2623 19.1361 18.6396 18.3674 18.6396H12.8015C12.0327 18.6396 11.41 19.2623 11.41 20.0311V27.9624H6.05636V16.6324H2.71684L15.5879 3.77179L16.3915 4.57536L28.4555 16.6324H25.1125Z" fill="black"/>
</svg>
