<svg width="112" height="112" viewBox="0 0 112 112" fill="none" xmlns="http://www.w3.org/2000/svg">
<circle cx="56" cy="56" r="56" fill="#875CA0"/>
<path d="M30.2817 47.5455H32.9067V59.9205C32.9067 61.0398 32.6851 61.9972 32.2419 62.7926C31.8044 63.5881 31.1879 64.196 30.3925 64.6165C29.597 65.0312 28.6652 65.2386 27.597 65.2386C26.6141 65.2386 25.7305 65.0597 24.9464 64.7017C24.168 64.3437 23.5516 63.8239 23.097 63.142C22.6481 62.4545 22.4237 61.6193 22.4237 60.6364H25.0402C25.0402 61.1193 25.151 61.5369 25.3726 61.8892C25.5999 62.2415 25.9095 62.517 26.3016 62.7159C26.6993 62.9091 27.1538 63.0057 27.6652 63.0057C28.222 63.0057 28.6936 62.8892 29.08 62.6562C29.472 62.4176 29.7703 62.0682 29.9749 61.608C30.1794 61.1477 30.2817 60.5852 30.2817 59.9205V47.5455ZM45.8037 52.1307C45.7127 51.3239 45.3377 50.6989 44.6787 50.2557C44.0196 49.8068 43.19 49.5824 42.19 49.5824C41.4741 49.5824 40.8548 49.696 40.3321 49.9233C39.8093 50.1449 39.4031 50.4517 39.1133 50.8438C38.8292 51.2301 38.6872 51.6705 38.6872 52.1648C38.6872 52.5795 38.7838 52.9375 38.9769 53.2386C39.1758 53.5398 39.4343 53.7926 39.7525 53.9972C40.0764 54.196 40.423 54.3636 40.7923 54.5C41.1616 54.6307 41.5167 54.7386 41.8576 54.8239L43.5622 55.267C44.119 55.4034 44.69 55.5881 45.2752 55.821C45.8605 56.054 46.4031 56.3608 46.9031 56.7415C47.4031 57.1222 47.8065 57.5938 48.1133 58.1562C48.4258 58.7188 48.5821 59.392 48.5821 60.1761C48.5821 61.1648 48.3264 62.0426 47.815 62.8097C47.3093 63.5767 46.5735 64.1818 45.6076 64.625C44.6474 65.0682 43.4855 65.2898 42.1218 65.2898C40.815 65.2898 39.6843 65.0824 38.7298 64.6676C37.7752 64.2528 37.0281 63.6648 36.4883 62.9034C35.9485 62.1364 35.6502 61.2273 35.5934 60.1761H38.2355C38.2866 60.8068 38.4912 61.3324 38.8491 61.7528C39.2127 62.1676 39.6758 62.4773 40.2383 62.6818C40.8065 62.8807 41.4287 62.9801 42.1048 62.9801C42.8491 62.9801 43.511 62.8636 44.0906 62.6307C44.6758 62.392 45.136 62.0625 45.4713 61.642C45.8065 61.2159 45.9741 60.7187 45.9741 60.1506C45.9741 59.6335 45.8264 59.2102 45.5309 58.8807C45.2412 58.5511 44.8463 58.2784 44.3463 58.0625C43.8519 57.8466 43.2923 57.6562 42.6673 57.4915L40.6048 56.929C39.2071 56.5483 38.0991 55.9886 37.2809 55.25C36.4684 54.5114 36.0622 53.5341 36.0622 52.3182C36.0622 51.3125 36.3349 50.4347 36.8804 49.6847C37.4258 48.9347 38.1644 48.3523 39.0963 47.9375C40.0281 47.517 41.0792 47.3068 42.2497 47.3068C43.4315 47.3068 44.4741 47.5142 45.3775 47.929C46.2866 48.3438 47.0025 48.9148 47.5252 49.642C48.048 50.3636 48.3207 51.1932 48.3434 52.1307H45.8037ZM57.7163 46.7273L52.0913 67.625H49.8157L55.4407 46.7273H57.7163ZM59.6296 65V47.5455H65.8512C67.2091 47.5455 68.3341 47.7926 69.2262 48.2869C70.1182 48.7812 70.7858 49.4574 71.229 50.3153C71.6722 51.1676 71.8938 52.1278 71.8938 53.196C71.8938 54.2699 71.6694 55.2358 71.2205 56.0938C70.7773 56.946 70.1069 57.6222 69.2091 58.1222C68.3171 58.6165 67.1949 58.8636 65.8426 58.8636H61.5642V56.6307H65.604C66.462 56.6307 67.158 56.483 67.6921 56.1875C68.2262 55.8864 68.6182 55.4773 68.8682 54.9602C69.1182 54.4432 69.2432 53.8551 69.2432 53.196C69.2432 52.5369 69.1182 51.9517 68.8682 51.4403C68.6182 50.929 68.2233 50.5284 67.6836 50.2386C67.1495 49.9489 66.4449 49.804 65.5699 49.804H62.2631V65H59.6296ZM74.5251 65V47.5455H77.1587V55.1307H85.8604V47.5455H88.5024V65H85.8604V57.3892H77.1587V65H74.5251Z" fill="white"/>
</svg>
