<svg width="29" height="29" viewBox="0 0 29 29" fill="none" xmlns="http://www.w3.org/2000/svg">
<path d="M24.0916 27.0974L27.7929 23.3927C28.2451 22.9404 28.4991 22.3351 28.4991 21.6951C28.4991 21.055 28.2486 20.4497 27.7929 19.9975L23.8098 16.0075C23.3576 15.5552 22.7489 15.3013 22.1088 15.3013C21.4652 15.3013 20.8634 15.5518 20.4077 16.0075L17.2873 19.1243C15.6329 18.4143 14.1298 17.3941 12.859 16.1188C11.5754 14.8421 10.5631 13.3498 9.84649 11.6939L12.9668 8.57703C13.4191 8.1248 13.673 7.51952 13.673 6.87944C13.6742 6.56373 13.6123 6.25096 13.4911 5.95946C13.3698 5.66796 13.1916 5.40359 12.9668 5.18185L8.98378 1.18835C8.53155 0.736119 7.92278 0.482177 7.28271 0.482177C6.63916 0.482177 6.03735 0.732641 5.58165 1.18835L1.88035 4.88964C1.10808 5.66191 0.666294 6.72638 0.666294 7.81868C0.666294 8.04479 0.683685 8.26395 0.72195 8.48658C1.4803 13.0923 3.93276 17.6633 7.62014 21.3542C11.3145 25.0415 15.8854 27.4905 20.4947 28.2558C21.8027 28.475 23.1489 28.0367 24.0916 27.0974ZM20.9086 25.7895C16.8073 25.1111 12.7164 22.9056 9.39426 19.5835C6.07214 16.2614 3.86666 12.174 3.18832 8.07262C3.10136 7.55778 3.27529 7.02902 3.64751 6.65333L7.28271 3.01812L11.1406 6.87248L6.96615 11.0399L6.93484 11.0712L7.21314 11.8226C8.05078 14.1009 9.37381 16.1698 11.0905 17.8859C12.8072 19.602 14.8766 20.9243 17.1552 21.7612L17.9066 22.0395L22.1053 17.8372L25.9631 21.6916L22.3279 25.3268C21.9522 25.7025 21.4235 25.8764 20.9086 25.7895Z" fill="black"/>
</svg>
